<svg xmlns="http://www.w3.org/2000/svg" viewBox="0 0 100 100">
  <defs>
    <linearGradient id="grad" x1="0%" y1="0%" x2="100%" y2="100%">
      <stop offset="0%" style="stop-color:#6366F1;stop-opacity:1" />
      <stop offset="100%" style="stop-color:#2DD4BF;stop-opacity:1" />
    </linearGradient>
  </defs>
  <rect width="100" height="100" rx="20" fill="url(#grad)" />
  <path d="M30 35C30 32.2386 32.2386 30 35 30H65C67.7614 30 70 32.2386 70 35V65C70 67.7614 67.7614 70 65 70H35C32.2386 70 30 67.7614 30 65V35Z" fill="white" fill-opacity="0.2" />
  <path d="M50 40C40 40 32 44 32 50V70C32 70 40 66 50 66C60 66 68 70 68 70V50C68 44 60 40 50 40Z" fill="white" />
  <path d="M50 40V66" stroke="rgba(0,0,0,0.1)" stroke-width="2" />
</svg>
